PathFileType	4	(X/Y/Z)	 s11c0303.trc
DataRate	CameraRate	NumFrames	NumMarkers	Units	OrigDataRate	OrigDataStartFrame	OrigNumFrames
200	200	4	48	mm	200	251	2000
Frame#	Time	racr			lacr			c7			jug			rlel			rdr			llel			ldr			s2			lic			ric			lasi			rasi			rpsi			lpsi			rgt			lgt			rth1			rth2			rth3			rth4			rlfc			rmfc			rsh1			rsh2			rsh3			rsh4			rlmal			rcal			rtoe			rmt5			lth1			lth2			lth4			lth3			llfc			lmfc			llmal			lcal			lmt5			lsh1			lsh2			lsh3			lsh4			ltoe			SBIKE			LBIKE			RBIKE			
		X1	Y1	Z1	X2	Y2	Z2	X3	Y3	Z3	X4	Y4	Z4	X5	Y5	Z5	X6	Y6	Z6	X7	Y7	Z7	X8	Y8	Z8	X9	Y9	Z9	X10	Y10	Z10	X11	Y11	Z11	X12	Y12	Z12	X13	Y13	Z13	X14	Y14	Z14	X15	Y15	Z15	X16	Y16	Z16	X17	Y17	Z17	X18	Y18	Z18	X19	Y19	Z19	X20	Y20	Z20	X21	Y21	Z21	X22	Y22	Z22	X23	Y23	Z23	X24	Y24	Z24	X25	Y25	Z25	X26	Y26	Z26	X27	Y27	Z27	X28	Y28	Z28	X29	Y29	Z29	X30	Y30	Z30	X31	Y31	Z31	X32	Y32	Z32	X33	Y33	Z33	X34	Y34	Z34	X35	Y35	Z35	X36	Y36	Z36	X37	Y37	Z37	X38	Y38	Z38	X39	Y39	Z39	X40	Y40	Z40	X41	Y41	Z41	X42	Y42	Z42	X43	Y43	Z43	X44	Y44	Z44	X45	Y45	Z45	X46	Y46	Z46	X47	Y47	Z47	X48	Y48	Z48	
251	1.2550	444.630000	1374.388329	-88.765499	435.400865	1379.893243	-394.011695	361.357830	1495.301778	-237.424833	395.299679	1320.405287	-246.494828	584.735997	1146.735766	-31.534546	795.563621	931.186658	-53.967654	561.146024	1124.114711	-463.101945	812.168567	919.737671	-413.855232	-171.719404	1204.177214	-251.366223	40.895713	1241.215915	-450.782837	54.470788	1209.995973	-49.325958	67.225336	1164.838533	-417.841184	86.003805	1144.676002	-82.940672	-159.224447	1293.875225	-153.987858	-132.452990	1283.230720	-282.934635	-14.450435	1063.162219	-32.023342	-37.664354	1111.052055	-467.553300	76.706452	951.802926	-24.904341	154.542308	902.994947	-35.450888	193.920226	825.901045	-51.622585	180.877476	927.745292	-43.927277	258.409903	741.770560	-65.915641	259.918829	725.588438	-192.814588	172.648521	605.043704	-58.452935	146.353186	523.205074	-79.611142	83.258164	463.049518	-84.003797	168.987390	514.400255	-111.291576	0.163178	359.287118	-102.163453	-65.876937	353.626663	-152.713065	204.439552	261.120565	-136.982741	128.690906	249.324582	-70.221732	97.327370	1040.343082	-481.387404	181.583941	1025.435176	-477.959089	198.417275	1057.531597	-469.466881	250.002317	966.825282	-476.124781	371.811453	894.850445	-450.297194	387.128663	894.972044	-324.286756	270.511790	481.158373	-407.972272	217.342989	433.378259	-370.566458	423.036766	401.764116	-439.418994	342.367736	771.190661	-463.017890	349.359413	687.871078	-444.651595	313.278764	607.760787	-435.182707	380.148204	686.742916	-421.988397	515.571217	434.594741	-371.006293	-206.495202	949.348993	-261.847342	1.246592	82.558434	-460.811418	-15.397821	81.067534	-62.382940	
252	1.2600	444.777389	1374.459870	-88.723586	435.557628	1380.047823	-393.943431	361.442418	1495.392045	-237.416865	395.554379	1320.351658	-246.443974	584.823436	1146.753095	-31.380362	795.586486	931.152589	-53.957841	561.145143	1124.140947	-463.101976	812.142848	919.743660	-413.888120	-171.633168	1204.224402	-251.287034	41.034834	1241.167190	-450.629658	54.609715	1209.903446	-49.261817	67.408832	1164.854749	-417.854165	86.143823	1144.580076	-82.944101	-159.743370	1294.178123	-152.969447	-132.320943	1283.242548	-282.890475	-14.299174	1063.091150	-32.025836	-37.558142	1111.087804	-467.537419	76.818598	951.734243	-24.953189	154.703777	902.908760	-35.526898	194.054339	825.831288	-51.752655	181.010900	927.693208	-44.013545	258.543298	741.708212	-66.083454	259.855975	725.723009	-193.221033	172.754943	605.007697	-58.572496	146.410360	523.149176	-79.679989	83.303775	463.011420	-84.050411	169.032832	514.371865	-111.397127	0.186506	359.264442	-102.187894	-65.863839	353.604200	-152.722121	204.442489	261.076878	-137.004234	128.686474	249.303833	-70.228479	97.439176	1040.339461	-481.334156	181.698780	1025.417746	-477.892301	198.526398	1057.513446	-469.415024	250.094415	966.800576	-476.055641	371.917587	894.872750	-450.250423	387.177940	894.950772	-324.224270	270.503467	481.193981	-407.984768	217.337785	433.405315	-370.563310	423.030696	401.785694	-439.426122	342.434574	771.224247	-463.004414	349.404967	687.902969	-444.636363	313.305482	607.790278	-435.165584	380.195285	686.756478	-421.960398	515.560274	434.625061	-370.990599	-206.483147	949.351490	-261.860466	1.243104	82.563607	-460.825199	-15.401719	81.060060	-62.388592	
253	1.2650	444.921593	1374.526734	-88.745145	435.725741	1380.280301	-393.889166	361.558837	1495.444460	-237.328863	395.792471	1320.303173	-246.405811	584.922082	1146.772218	-31.210256	795.599528	931.132328	-53.964820	561.029791	1124.223559	-462.815795	812.121559	919.744496	-413.863748	-171.492671	1204.232820	-251.247502	41.216233	1241.167020	-450.644367	54.776172	1209.793009	-49.213912	67.545601	1164.813920	-417.743978	86.260465	1144.474142	-82.937893	-160.282668	1294.401065	-151.943229	-132.210266	1283.263123	-282.844412	-14.157519	1063.030116	-32.031551	-37.440237	1111.105845	-467.514418	76.927720	951.666928	-25.001909	154.845451	902.845723	-35.610092	194.215002	825.778562	-51.865528	181.170346	927.637031	-44.125845	258.667696	741.639853	-66.237329	259.941722	725.648073	-193.289207	172.836618	604.964760	-58.661968	146.500365	523.139701	-79.773743	83.369944	462.985719	-84.128777	169.097650	514.343039	-111.456640	0.233333	359.254802	-102.197352	-65.836676	353.597908	-152.726398	204.485002	261.001786	-137.042221	128.722232	249.269287	-70.245159	97.543530	1040.347790	-481.299652	181.797156	1025.392710	-477.826341	198.638836	1057.496888	-469.355407	250.189422	966.787679	-476.011267	372.047351	894.876536	-450.186869	387.244184	894.942825	-324.204386	270.486655	481.231307	-408.008009	217.304661	433.449387	-370.593826	423.016271	401.819907	-439.404687	342.505412	771.262276	-462.962234	349.463858	687.925657	-444.591085	313.354764	607.816310	-435.142265	380.253562	686.774058	-421.950819	515.538471	434.667281	-370.986838	-206.491250	949.355823	-261.854061	1.239334	82.568230	-460.812156	-15.409253	81.064990	-62.391291	
254	1.2700	445.085536	1374.603168	-88.753221	435.935823	1380.437737	-393.841698	361.556480	1495.552448	-237.346327	396.007264	1320.286862	-246.363629	585.034041	1146.806291	-31.064597	795.604205	931.082077	-53.982209	561.183130	1124.176668	-462.940133	812.126512	919.730291	-413.831968	-171.379573	1204.246503	-251.196673	41.408779	1241.146567	-450.626380	54.954917	1209.695585	-49.137005	67.692452	1164.828815	-417.725001	86.407339	1144.406606	-82.916769	-160.808396	1294.645841	-150.925056	-132.069402	1283.254159	-282.798165	-14.007963	1062.963840	-32.013790	-37.326735	1111.145881	-467.482091	77.033835	951.600970	-25.050495	154.998070	902.791713	-35.677044	194.330196	825.682027	-51.969212	181.314599	927.564117	-44.223318	258.803612	741.587856	-66.407856	259.991359	725.586035	-193.418652	172.929087	604.933323	-58.758741	146.582148	523.087078	-79.878305	83.411280	462.976908	-84.189489	169.174695	514.310296	-111.579851	0.262274	359.233948	-102.205884	-65.801198	353.577982	-152.720863	204.526343	260.937429	-137.042990	128.738287	249.239726	-70.245277	97.660530	1040.321536	-481.261513	181.931168	1025.347315	-477.833086	198.740891	1057.469408	-469.306400	250.298756	966.757475	-475.948592	372.168012	894.884696	-450.126178	387.349452	894.946918	-324.136552	270.473529	481.278732	-408.006085	217.279779	433.489359	-370.599451	423.004806	401.860296	-439.409139	342.582119	771.282431	-462.943535	349.517123	687.944231	-444.579282	313.386266	607.846558	-435.127322	380.300213	686.770696	-421.923349	515.518518	434.705899	-370.980371	-206.491308	949.358969	-261.853448	1.246003	82.566380	-460.818796	-15.412062	81.070235	-62.380398	
